<?xml version="1.0" standalone="no"?>
<!DOCTYPE svg PUBLIC "-//W3C//DTD SVG 20010904//EN"
 "http://www.w3.org/TR/2001/REC-SVG-20010904/DTD/svg10.dtd">
<svg version="1.0" xmlns="http://www.w3.org/2000/svg"
 width="700.000000pt" height="700.000000pt" viewBox="0 0 700.000000 700.000000"
 preserveAspectRatio="xMidYMid meet">
<metadata>
Created by potrace 1.11, written by Peter Selinger 2001-2013
</metadata>
<g transform="translate(0.000000,700.000000) scale(0.100000,-0.100000)"
fill="#000000" stroke="none">
<path d="M1 3500 l0 -3330 3499 0 3499 0 -2 708 -2 707 -2795 1 c-1537 1
-2799 2 -2805 3 -7 1 -10 881 -9 2621 l0 2620 -692 0 -693 0 0 -3330z"/>
<path d="M2350 4607 l0 -2223 623 0 622 1 1 351 c0 193 4 356 8 362 4 7 4 12
-1 12 -7 0 -9 184 -3 200 1 3 1 10 0 15 -6 25 -5 693 2 718 3 15 4 27 0 27 -8
0 -8 187 0 196 4 3 3 18 -1 32 -6 24 -7 353 -1 377 1 6 1 12 0 15 -4 12 -5
130 0 130 6 0 70 -69 70 -76 0 -3 10 -15 23 -27 19 -19 104 -113 187 -210 14
-16 48 -54 75 -84 28 -30 59 -66 70 -80 11 -14 37 -44 58 -66 22 -23 53 -59
70 -80 18 -21 48 -55 67 -76 19 -21 60 -66 90 -101 30 -35 62 -71 70 -80 8 -8
42 -47 75 -85 33 -38 67 -76 75 -85 8 -9 40 -45 70 -80 30 -35 69 -78 85 -96
17 -18 50 -56 75 -85 25 -28 56 -64 70 -79 14 -15 50 -56 80 -91 30 -35 78
-89 105 -119 28 -31 77 -87 110 -125 57 -66 89 -102 152 -172 15 -17 39 -44
52 -60 13 -15 40 -46 60 -68 20 -23 65 -74 101 -115 36 -40 74 -83 85 -95 11
-13 41 -47 67 -76 25 -30 60 -70 78 -89 l31 -35 624 -1 624 0 0 2223 0 2223
-622 -2 -622 -3 0 -1213 c0 -666 -2 -1212 -5 -1212 -6 0 -63 60 -150 160 -30
35 -80 91 -110 124 -30 34 -59 67 -65 74 -5 7 -17 21 -25 31 -30 34 -155 176
-165 187 -5 6 -37 41 -70 79 -33 38 -69 78 -80 91 -11 12 -47 53 -80 90 -33
38 -80 91 -105 119 -25 28 -74 84 -110 125 -36 41 -81 92 -101 115 -20 22 -44
50 -55 63 -10 13 -35 41 -54 61 -32 35 -118 132 -180 204 -14 16 -34 38 -45
50 -11 12 -45 51 -75 87 -30 35 -68 78 -85 96 -16 17 -43 47 -59 65 -77 91
-133 155 -156 179 -14 14 -43 48 -65 73 -22 26 -53 62 -70 80 -53 58 -161 181
-191 217 -16 19 -34 41 -41 48 -9 9 -150 12 -637 12 l-626 0 0 -2223z"/>
</g>
</svg>
