<?xml version="1.0" standalone="no"?>
<!DOCTYPE svg PUBLIC "-//W3C//DTD SVG 20010904//EN"
 "http://www.w3.org/TR/2001/REC-SVG-20010904/DTD/svg10.dtd">
<svg version="1.0" xmlns="http://www.w3.org/2000/svg"
 width="700.000000pt" height="700.000000pt" viewBox="0 0 700.000000 700.000000"
 preserveAspectRatio="xMidYMid meet">
<metadata>
Created by potrace 1.14, written by Peter Selinger 2001-2017
</metadata>
<g transform="translate(0.000000,700.000000) scale(0.100000,-0.100000)"
fill="#000000" stroke="none">
<path d="M1393 4788 c-2 -5 -16 -50 -30 -101 -13 -51 -31 -117 -40 -147 -8
-30 -16 -62 -18 -70 -2 -8 -10 -42 -19 -75 -9 -33 -18 -67 -21 -75 -2 -8 -69
-260 -149 -560 -80 -299 -146 -549 -146 -555 0 -10 754 -14 764 -4 2 2 14 38
25 79 11 41 34 127 51 190 17 63 33 122 35 130 3 13 52 195 136 510 115 424
179 668 179 678 0 11 -760 10 -767 0z"/>
<path d="M3507 4777 c-2 -12 -46 -175 -96 -362 -51 -187 -94 -347 -96 -355 -6
-26 -83 -314 -156 -584 -39 -142 -68 -264 -66 -270 3 -8 109 -11 373 -10 203
1 374 2 380 3 6 1 19 29 28 64 9 34 30 114 47 177 17 63 44 162 59 220 15 58
31 112 35 122 6 15 71 -106 263 -487 24 -49 47 -92 49 -94 5 -7 1533 -7 1543
-1 4 3 12 25 18 50 6 25 25 97 42 160 17 63 33 123 35 132 2 9 28 108 59 220
50 185 121 450 213 793 19 72 36 140 39 152 2 12 9 34 14 48 6 15 10 30 10 34
0 4 -173 7 -385 7 l-385 0 -14 -51 c-22 -76 -38 -137 -43 -164 -2 -14 -6 -28
-9 -32 -2 -4 -22 -77 -45 -161 -44 -167 -98 -368 -124 -463 -9 -33 -18 -68
-20 -78 -2 -10 -7 -27 -10 -37 -3 -10 -8 -27 -10 -37 -3 -14 -117 -436 -129
-478 -2 -5 -6 -27 -11 -47 -4 -21 -10 -38 -14 -38 -4 0 -56 96 -115 213 -60
116 -157 307 -216 422 -246 482 -416 814 -449 881 l-35 72 -387 0 -387 0 -5
-21z"/>
<path d="M895 2938 c-6 -20 -41 -151 -131 -488 -31 -118 -58 -222 -61 -231 -4
-13 140 -15 1442 -15 l1446 0 5 26 c3 14 8 32 10 40 3 8 5 15 4 15 -1 0 3 12
9 28 6 15 13 38 15 50 4 22 141 535 152 570 5 16 -68 17 -1441 17 -1148 0
-1446 -3 -1450 -12z"/>
<path d="M4460 2944 c0 -7 361 -716 371 -730 6 -8 126 -11 392 -11 l384 0 43
161 c24 88 53 200 66 247 12 47 34 130 49 185 15 54 29 107 30 117 2 9 7 22
10 27 4 7 -223 10 -669 10 -372 0 -676 -2 -676 -6z"/>
</g>
</svg>
