<?xml version="1.0" standalone="no"?>
<!DOCTYPE svg PUBLIC "-//W3C//DTD SVG 20010904//EN"
 "http://www.w3.org/TR/2001/REC-SVG-20010904/DTD/svg10.dtd">
<svg version="1.0" xmlns="http://www.w3.org/2000/svg"
 width="260.000000pt" height="260.000000pt" viewBox="0 0 260.000000 260.000000"
 preserveAspectRatio="xMidYMid meet">
<metadata>
Created by potrace 1.14, written by Peter Selinger 2001-2017
</metadata>
<g transform="translate(0.000000,260.000000) scale(0.100000,-0.100000)"
fill="#000000" stroke="none">
<path d="M1325 2579 c-33 -11 -69 -24 -80 -29 -11 -5 -68 -28 -126 -50 -90
-36 -110 -40 -129 -30 -19 10 -28 6 -78 -34 -32 -25 -93 -63 -137 -85 -44 -22
-100 -58 -125 -80 -25 -22 -51 -38 -58 -36 -7 3 -18 -8 -25 -23 -6 -15 -24
-38 -39 -52 -32 -28 -41 -63 -10 -39 15 12 15 12 5 -1 -6 -8 -25 -61 -42 -117
-16 -57 -40 -116 -53 -133 -25 -35 -77 -70 -102 -70 -9 0 -16 -7 -16 -15 0
-21 27 -19 62 6 l29 21 -6 -38 c-4 -22 -11 -54 -17 -71 -22 -74 4 -238 53
-335 12 -23 15 -38 8 -38 -17 0 -2 -211 20 -285 5 -16 10 -55 10 -85 1 -30 6
-68 13 -85 18 -49 68 -95 109 -101 l36 -6 13 -87 c8 -47 15 -97 16 -111 4 -35
18 -75 49 -145 28 -60 128 -169 265 -288 141 -123 315 -153 498 -86 31 12 69
24 84 27 39 10 318 267 318 294 0 7 12 31 27 53 19 27 30 63 39 124 25 158 26
161 70 161 11 0 33 14 47 30 15 17 33 30 41 30 12 0 30 34 27 53 -1 4 5 23 13
42 8 19 13 35 10 35 -2 0 2 16 10 35 8 19 12 35 9 35 -3 0 0 6 6 14 6 7 14 37
17 67 3 30 8 70 11 89 2 19 6 57 8 83 4 49 32 147 42 147 3 0 3 -6 0 -13 -3
-8 -1 -20 3 -27 9 -15 14 9 26 120 12 113 6 192 -21 295 -14 55 -27 105 -28
110 -2 6 -14 26 -28 45 -82 111 -129 187 -135 216 -4 22 -29 57 -77 108 -40
41 -105 111 -145 156 -41 44 -79 80 -85 79 -27 -5 -65 10 -271 106 -78 36 -90
37 -161 14z m-240 -616 c-4 -16 -8 -37 -10 -48 -2 -11 -17 -58 -34 -105 -16
-47 -33 -110 -36 -140 -8 -67 -35 -150 -80 -245 l-35 -72 -42 0 c-101 -1 -99
0 -96 -34 2 -30 3 -30 49 -26 36 3 46 1 43 -8 -3 -7 -1 -16 5 -19 5 -4 13 3
16 14 6 19 13 21 58 17 55 -5 260 -73 265 -88 2 -5 8 -9 13 -9 5 0 4 12 -2 27
-5 14 -8 32 -5 38 9 23 -157 87 -226 87 -27 0 -48 3 -48 5 0 2 11 29 25 59 14
30 37 82 51 117 14 34 30 67 34 72 4 6 11 21 15 35 4 14 30 72 57 130 l50 105
22 -75 c25 -83 59 -155 79 -167 7 -4 38 -44 68 -88 30 -44 61 -87 69 -96 18
-20 129 -94 152 -102 37 -13 27 17 -24 71 -71 77 -95 105 -153 185 -44 59 -50
73 -51 117 0 28 3 50 7 50 4 0 19 -20 33 -44 14 -25 32 -51 39 -58 6 -7 41
-51 76 -98 36 -47 66 -87 68 -89 2 -3 8 0 13 5 6 6 1 19 -16 37 -48 52 -7 26
101 -64 144 -119 138 -111 84 -106 -33 4 -72 -2 -130 -20 -46 -14 -102 -30
-124 -36 -22 -7 -41 -17 -42 -22 -1 -6 -5 -23 -8 -38 -9 -34 -5 -34 92 0 69
24 95 27 221 30 l142 2 60 -56 c33 -30 60 -60 60 -66 0 -5 -11 -25 -25 -43
-31 -40 -54 -38 -104 9 -45 42 -95 77 -118 82 -10 2 -37 8 -60 13 -92 21 -199
-13 -261 -83 l-38 -43 -33 17 c-25 14 -44 16 -84 10 -29 -4 -60 -10 -69 -14
-10 -4 -18 -3 -18 3 0 16 -71 86 -110 110 -43 25 -143 33 -216 17 -54 -12
-131 -52 -154 -79 -23 -28 -58 -19 -84 22 -29 46 -42 93 -24 90 9 -2 13 11 14
42 0 25 2 47 3 50 2 3 5 28 7 56 2 28 7 62 12 75 7 18 11 6 22 -61 10 -65 21
-99 47 -142 49 -80 66 -69 42 26 -10 41 -21 102 -24 137 -2 35 -6 72 -8 82 -2
11 0 46 5 79 12 89 15 105 27 125 8 14 11 6 12 -37 1 -96 31 -246 54 -276 16
-22 19 -7 6 28 -9 23 -20 124 -22 203 -3 100 0 112 37 157 l37 43 -6 -35 c-8
-47 -12 -149 -5 -155 6 -6 19 29 72 197 l37 117 37 6 c20 4 44 8 52 10 39 8
42 5 35 -22z m-585 -737 c8 -16 29 -45 47 -63 32 -34 34 -44 48 -178 3 -27 7
-61 9 -75 17 -107 17 -120 1 -120 -21 0 -75 38 -75 52 0 6 -7 16 -17 23 -19
14 -32 123 -15 134 7 4 7 18 0 47 -10 37 -9 45 11 73 17 23 19 31 8 31 -8 0
-20 -14 -27 -31 -18 -43 -34 -14 -21 41 7 30 6 42 -4 48 -11 6 -20 59 -16 97
1 10 23 -25 51 -79z m1665 -38 c-17 -64 -23 -102 -24 -145 -1 -39 -16 -44 -19
-7 -2 32 -11 46 -22 39 -5 -3 -5 -16 0 -31 7 -17 6 -34 -4 -57 l-14 -32 -1 30
c-1 24 -4 27 -11 14 -5 -9 -7 -26 -5 -38 2 -12 0 -34 -6 -47 -7 -20 -6 -25 3
-22 7 3 14 14 16 26 2 12 8 22 13 22 5 0 16 15 24 33 l15 32 -5 -45 c-8 -92
-30 -158 -59 -185 -33 -29 -53 -43 -72 -49 -19 -6 -21 -3 -18 21 4 35 5 42 45
246 l24 117 28 -6 c25 -5 27 -3 27 25 0 21 11 43 36 71 20 22 38 40 39 40 2 0
-3 -24 -10 -52z m-1275 4 c-30 -15 -56 -33 -58 -41 -4 -11 1 -10 19 2 28 20
39 21 39 6 0 -18 49 -59 71 -59 10 0 27 10 37 21 9 12 23 27 30 34 20 22 14
34 -23 41 -19 3 -33 10 -30 14 9 14 101 -23 139 -55 19 -16 38 -43 42 -60 21
-92 -16 -211 -81 -261 -32 -24 -46 -28 -104 -28 -81 1 -134 17 -185 57 -82 64
-120 230 -65 278 48 42 125 72 199 77 18 1 9 -7 -30 -26z m815 -7 c47 -10 89
-33 130 -72 35 -33 38 -41 40 -92 2 -85 -18 -133 -83 -192 -64 -59 -86 -69
-149 -69 -144 0 -249 105 -244 244 2 61 5 74 27 98 69 81 160 108 279 83z
m-1083 -54 c7 -10 22 -20 32 -22 15 -3 20 -14 23 -54 7 -89 35 -151 92 -204
90 -82 275 -90 341 -14 35 40 71 133 72 189 0 36 4 44 27 53 14 6 50 12 79 13
71 2 84 -13 93 -104 8 -81 26 -123 71 -168 73 -73 186 -95 278 -53 97 44 176
160 167 246 -4 35 -3 37 24 37 22 0 35 10 59 45 33 47 45 57 36 28 -3 -10 -8
-40 -11 -68 -4 -27 -10 -66 -15 -85 -5 -19 -11 -51 -14 -70 -4 -19 -13 -66
-21 -105 -8 -38 -17 -83 -20 -99 -2 -15 -7 -37 -10 -47 -4 -11 -8 -33 -10 -50
-3 -17 -9 -45 -15 -62 -5 -18 -16 -53 -23 -79 -8 -30 -30 -67 -63 -105 -94
-107 -189 -200 -229 -226 -65 -41 -203 -72 -320 -71 -93 0 -105 3 -175 36 -58
27 -93 54 -152 114 -140 144 -250 303 -262 380 -4 21 -13 75 -21 119 -9 45
-17 94 -19 110 -2 17 -7 50 -10 75 -8 53 -14 103 -22 185 -4 33 -8 63 -11 68
-9 16 17 6 29 -12z"/>
<path d="M530 1040 c0 -27 -4 -50 -10 -50 -5 0 -10 -4 -10 -10 0 -5 7 -10 15
-10 9 0 18 -12 22 -30 3 -16 12 -30 19 -30 18 0 18 0 -4 52 -12 27 -17 59 -14
86 2 26 -1 42 -7 42 -6 0 -11 -21 -11 -50z"/>
<path d="M2061 875 c-16 -17 -19 -25 -9 -25 8 0 25 11 38 25 16 17 19 25 9 25
-8 0 -25 -12 -38 -25z"/>
<path d="M1584 1168 c-17 -4 -38 -15 -45 -24 -12 -15 -11 -16 9 -10 16 5 22 3
22 -8 0 -26 41 -56 77 -56 26 0 37 6 51 29 14 23 21 27 35 19 10 -5 23 -8 30
-5 14 5 -73 47 -118 57 -16 3 -44 3 -61 -2z"/>
<path d="M1186 948 c-3 -7 -8 -26 -12 -43 -9 -37 -8 -34 -22 -68 -17 -40 -26
-83 -17 -74 9 8 75 174 75 188 0 14 -20 11 -24 -3z"/>
<path d="M1140 660 c0 -17 28 -42 34 -31 3 5 15 7 26 4 11 -3 20 0 20 6 0 6
-9 11 -21 11 -11 0 -29 5 -40 10 -13 8 -19 7 -19 0z"/>
<path d="M1342 651 c-10 -6 -10 -10 1 -19 11 -9 18 -8 32 8 17 19 17 20 -1 20
-10 0 -25 -4 -32 -9z"/>
<path d="M1054 418 c-6 -10 -9 -9 46 -13 25 -2 77 -7 115 -10 39 -4 99 -6 135
-5 36 1 77 3 93 3 15 0 26 5 24 11 -4 11 -51 11 -145 1 -24 -3 -63 -1 -85 5
-56 12 -177 18 -183 8z"/>
</g>
</svg>
