<?xml version="1.0" encoding="UTF-8" standalone="no"?>
<!DOCTYPE svg PUBLIC "-//W3C//DTD SVG 1.1//EN" "http://www.w3.org/Graphics/SVG/1.1/DTD/svg11.dtd">
<svg width="100%" height="100%" viewBox="0 0 513 513" version="1.1" xmlns="http://www.w3.org/2000/svg" xmlns:xlink="http://www.w3.org/1999/xlink" xml:space="preserve" xmlns:serif="http://www.serif.com/" style="fill-rule:evenodd;clip-rule:evenodd;stroke-linejoin:round;stroke-miterlimit:2;">
    <path d="M500.398,94.784C492.355,98.351 484.085,101.362 475.635,103.807C485.639,92.493 493.266,79.181 497.922,64.614C498.966,61.349 497.884,57.775 495.2,55.639C492.519,53.502 488.795,53.246 485.844,54.995C467.899,65.638 448.539,73.287 428.239,77.759C407.79,57.778 380.017,46.406 351.305,46.406C290.699,46.406 241.392,95.712 241.392,156.316C241.392,161.089 241.694,165.836 242.292,170.517C167.086,163.914 97.168,126.949 49.156,68.054C47.445,65.955 44.809,64.823 42.11,65.04C39.41,65.251 36.983,66.774 35.619,69.115C25.881,85.824 20.733,104.935 20.733,124.38C20.733,150.864 30.188,175.991 46.891,195.626C41.812,193.867 36.884,191.669 32.18,189.058C29.655,187.652 26.573,187.674 24.064,189.112C21.554,190.551 19.98,193.196 19.913,196.088C19.901,196.575 19.901,197.062 19.901,197.556C19.901,237.087 41.177,272.678 73.706,292.076C70.911,291.797 68.119,291.392 65.344,290.862C62.483,290.315 59.542,291.318 57.613,293.5C55.681,295.68 55.041,298.719 55.932,301.494C67.972,339.085 98.971,366.734 136.446,375.164C105.364,394.632 69.82,404.829 32.507,404.829C24.721,404.829 16.891,404.372 9.228,403.465C5.421,403.012 1.781,405.26 0.484,408.881C-0.813,412.503 0.562,416.541 3.8,418.617C51.735,449.352 107.161,465.597 164.084,465.597C275.987,465.597 345.991,412.828 385.01,368.56C433.667,313.361 461.572,240.299 461.572,168.109C461.572,165.093 461.526,162.048 461.433,159.012C480.63,144.549 497.157,127.045 510.606,106.927C512.649,103.872 512.428,99.833 510.061,97.021C507.7,94.204 503.76,93.294 500.398,94.784Z" style="fill:white;fill-rule:nonzero;"/>
</svg>
