<?xml version="1.0" encoding="UTF-8" standalone="no"?>
<!DOCTYPE svg PUBLIC "-//W3C//DTD SVG 1.1//EN" "http://www.w3.org/Graphics/SVG/1.1/DTD/svg11.dtd">
<svg width="100%" height="100%" viewBox="0 0 37 47" version="1.1" xmlns="http://www.w3.org/2000/svg" xmlns:xlink="http://www.w3.org/1999/xlink" xml:space="preserve" xmlns:serif="http://www.serif.com/" style="fill-rule:evenodd;clip-rule:evenodd;stroke-linejoin:round;stroke-miterlimit:2;">
    <g transform="matrix(0.0630204,0,0,0.0630204,-6.93224,-2.10068)">
        <path d="M396.667,33.333C239.406,33.333 110,162.739 110,320C110,465 350,721.667 390.667,764.333C392.178,765.944 394.291,766.859 396.5,766.859C398.709,766.859 400.822,765.944 402.333,764.333C443,722 683,464.333 683,320C683,162.865 553.801,33.516 396.667,33.333ZM396.667,422.333C340.909,421.788 295.333,375.766 295.333,320.005C295.333,263.866 341.528,217.672 397.667,217.672C453.803,217.672 499.997,263.863 500,320C500,320.002 500,320.003 500,320.005C500,376.143 453.805,422.338 397.667,422.338C397.333,422.338 397,422.337 396.667,422.333Z" style="fill:rgb(206,42,41);fill-rule:nonzero;"/>
    </g>
</svg>
