<?xml version="1.0" encoding="UTF-8" standalone="no"?>
<!DOCTYPE svg PUBLIC "-//W3C//DTD SVG 1.1//EN" "http://www.w3.org/Graphics/SVG/1.1/DTD/svg11.dtd">
<svg width="100%" height="100%" viewBox="0 0 38 43" version="1.1" xmlns="http://www.w3.org/2000/svg" xmlns:xlink="http://www.w3.org/1999/xlink" xml:space="preserve" xmlns:serif="http://www.serif.com/" style="fill-rule:evenodd;clip-rule:evenodd;stroke-linejoin:round;stroke-miterlimit:2;">
    <g transform="matrix(0.438054,0,0,0.793231,-19.546,-970.645)">
        <g transform="matrix(1,0,0,0.55224,0,1199.02)">
            <path d="M130.18,112.24L130.18,67.16L91.14,44.62L91.14,61.91L106.44,70.74C106.99,71.05 107.01,71.91 106.44,72.22L88.26,82.72C87.71,83.04 87.06,83.02 86.55,82.72L68.37,72.22C67.81,71.92 67.8,71.04 68.37,70.74L83.66,61.91L83.66,44.62L44.62,67.16L44.62,112.24L44.62,112.03L44.62,112.24L59.59,103.6L59.59,85.94C59.58,85.31 60.32,84.86 60.87,85.2L79.05,95.7C79.6,96.02 79.91,96.59 79.91,97.18L79.91,118.17C79.92,118.8 79.18,119.25 78.63,118.91L63.33,110.08L48.36,118.72L87.4,141.26L126.44,118.72L111.47,110.08L96.17,118.91C95.63,119.24 94.87,118.81 94.89,118.17L94.89,97.18C94.89,96.55 95.24,95.99 95.75,95.7L113.93,85.2C114.47,84.87 115.23,85.29 115.21,85.94L115.21,103.6L130.18,112.24Z" style="fill:rgb(76,76,76);fill-rule:nonzero;"/>
        </g>
        <g transform="matrix(1,0,0,0.55224,0,1199.02)">
            <path d="M87.4,141.26L126.44,118.72L111.47,110.08L96.17,118.91C95.63,119.24 94.87,118.81 94.89,118.17L94.89,97.18C94.89,96.55 95.24,95.99 95.75,95.7L113.93,85.2C114.47,84.87 115.23,85.29 115.21,85.94L115.21,103.6L130.18,112.24L130.18,67.16L87.4,91.86L87.4,141.26Z" style="fill-rule:nonzero;"/>
        </g>
        <g transform="matrix(1,0,0,0.55224,0,1199.02)">
            <path d="M91.14,44.62L91.14,61.91L106.44,70.74C106.99,71.05 107.01,71.91 106.44,72.22L88.26,82.72C87.71,83.04 87.06,83.02 86.55,82.72L68.37,72.22C67.81,71.92 67.8,71.04 68.37,70.74L83.66,61.91L83.66,44.62L44.62,67.16L87.4,91.86L130.18,67.16L91.14,44.62Z" style="fill:rgb(128,128,128);fill-rule:nonzero;"/>
        </g>
        <g transform="matrix(1,0,0,0.55224,0,1199.02)">
            <path d="M78.64,118.91L63.34,110.08L48.37,118.72L87.41,141.26L87.41,91.86L44.63,67.16L44.63,112.24L44.63,112.03L44.63,112.24L59.6,103.6L59.6,85.94C59.59,85.31 60.33,84.86 60.88,85.2L79.06,95.7C79.61,96.02 79.92,96.59 79.92,97.18L79.92,118.17C79.93,118.8 79.19,119.25 78.64,118.91Z" style="fill:rgb(76,76,76);fill-rule:nonzero;"/>
        </g>
    </g>
</svg>
