<?xml version="1.0" encoding="UTF-8" standalone="no"?><!DOCTYPE svg PUBLIC "-//W3C//DTD SVG 1.1//EN" "http://www.w3.org/Graphics/SVG/1.1/DTD/svg11.dtd"><svg width="100%" height="100%" viewBox="0 0 166 166" version="1.1" xmlns="http://www.w3.org/2000/svg" xmlns:xlink="http://www.w3.org/1999/xlink" xml:space="preserve" xmlns:serif="http://www.serif.com/" style="fill-rule:evenodd;clip-rule:evenodd;stroke-linejoin:round;stroke-miterlimit:2;"><g><g><path d="M151.173,73.235c-0,-9.167 -7.442,-16.609 -16.609,-16.609l-0.013,0c-9.167,0 -16.609,7.442 -16.609,16.609c-0,9.167 7.442,16.609 16.609,16.609l0.013,-0c9.167,-0 16.609,-7.442 16.609,-16.609Z" style="fill:#b4464f;"/><clipPath id="_clip1"><rect x="103.791" y="97.415" width="61.533" height="30.694"/></clipPath><g clip-path="url(#_clip1)"><path d="M165.324,128.182c-0,-16.981 -13.786,-30.767 -30.767,-30.767c-16.98,0 -30.766,13.786 -30.766,30.767c-0,16.98 13.786,30.766 30.766,30.766c16.981,0 30.767,-13.786 30.767,-30.766Z" style="fill:#b4464f;"/></g></g><g><path d="M47.382,73.235c-0,-9.167 -7.442,-16.609 -16.609,-16.609l-0.013,0c-9.167,0 -16.609,7.442 -16.609,16.609c0,9.167 7.442,16.609 16.609,16.609l0.013,-0c9.167,-0 16.609,-7.442 16.609,-16.609Z" style="fill:#b4464f;"/><clipPath id="_clip2"><rect x="-0" y="97.415" width="61.533" height="30.694"/></clipPath><g clip-path="url(#_clip2)"><path d="M61.533,128.182c0,-16.981 -13.786,-30.767 -30.766,-30.767c-16.981,0 -30.767,13.786 -30.767,30.767c-0,16.98 13.786,30.766 30.767,30.766c16.98,0 30.766,-13.786 30.766,-30.766Z" style="fill:#b4464f;"/></g></g><g><path d="M103.807,58.325c0,-11.657 -9.464,-21.122 -21.121,-21.122l-0.017,0c-11.658,0 -21.122,9.465 -21.122,21.122c0,11.657 9.464,21.122 21.122,21.122l0.017,-0c11.657,-0 21.121,-9.465 21.121,-21.122Z" style="fill:#b4464f;"/><path d="M82.669,87.116l0.759,-0.01c15.547,-0.394 28.048,-13.139 28.048,-28.781c0,-15.89 -12.9,-28.791 -28.79,-28.791l-0.017,0c-15.89,0 -28.791,12.901 -28.791,28.791c-0,15.89 12.901,28.791 28.791,28.791Zm21.138,-28.791c0,-11.657 -9.464,-21.122 -21.121,-21.122l-0.017,0c-11.658,0 -21.122,9.465 -21.122,21.122c0,11.657 9.464,21.122 21.122,21.122l0.017,-0c11.657,-0 21.121,-9.465 21.121,-21.122Z" style="fill:#f8f8f8;"/><clipPath id="_clip3"><rect x="30.797" y="89.075" width="103.76" height="39.034"/></clipPath><g clip-path="url(#_clip3)"><path d="M121.803,128.201c0,-21.594 -17.532,-39.126 -39.126,-39.126c-21.594,0 -39.126,17.532 -39.126,39.126c0,21.595 17.532,39.127 39.126,39.127c21.594,-0 39.126,-17.532 39.126,-39.127Z" style="fill:#b4464f;"/><path d="M129.472,128.201c0,-25.827 -20.968,-46.795 -46.795,-46.795c-25.827,0 -46.795,20.968 -46.795,46.795c-0,25.827 20.968,46.796 46.795,46.796c25.827,-0 46.795,-20.969 46.795,-46.796Zm-7.669,0c0,-21.594 -17.532,-39.126 -39.126,-39.126c-21.594,0 -39.126,17.532 -39.126,39.126c0,21.595 17.532,39.127 39.126,39.127c21.594,-0 39.126,-17.532 39.126,-39.127Z" style="fill:#f8f8f8;"/></g></g></g></svg>